<svg xmlns="http://www.w3.org/2000/svg" id="Layer_2" data-name="Layer 2" viewBox="0 0 497.81 150"><defs><linearGradient id="linear-gradient" x1="0" x2="150" y1="75" y2="75" gradientUnits="userSpaceOnUse"><stop offset="0" stop-color="#feda00"/><stop offset="1" stop-color="#63b1b6"/></linearGradient><style>.cls-2{fill:#8c8e90}.cls-3{fill:#fff;opacity:.5}</style></defs><g id="Layer_1-2" data-name="Layer 1"><path d="M213.58 33.33v30.82c-5.7 3.13-13.62 5.15-21.44 5.15-18.77 0-33.58-14.63-33.58-33.3s15.09-33.3 34.32-33.3c6.62 0 12.79 1.75 18.12 4.6l-1.38 7.18c-4.69-3.22-10.49-5.15-16.74-5.15-15.09 0-26.96 11.78-26.96 26.68s11.5 26.68 26.13 26.68c5.7 0 10.21-.92 14.54-2.85V39.97h-18.77l1.29-6.62h24.47ZM263.72 61.57l-1.29 6.63h-33.85V4.44l6.99-1.28v58.41h28.15zM301.99 2.7c-18.95 0-33.85 14.63-33.85 33.3s14.9 33.3 33.85 33.3 33.85-14.63 33.85-33.3-14.9-33.3-33.85-33.3Zm0 59.98c-14.81 0-26.49-11.78-26.49-26.68s11.68-26.68 26.49-26.68S328.48 21.1 328.48 36s-11.68 26.68-26.49 26.68ZM375.77 35.08c6.16-2.58 10.12-7.82 10.12-14.54 0-9.84-8-16.74-19.41-16.74h-17.02v64.4h17.94c11.78 0 19.96-7.18 19.96-17.57 0-7.36-4.51-13.06-11.59-15.55Zm-8.37 26.49h-10.95V10.42h10.03c7.17 0 12.24 4.32 12.24 10.58 0 6.72-5.06 11.32-12.24 11.32h-6.03l-1.29 6.62h8.24c7.54 0 12.79 4.6 12.79 11.32s-5.24 11.32-12.79 11.32ZM450.56 66.91 421.96 1.5 392.8 68.2l.56-1.29 6.89 1.28 9.47-22.26h24.47l9.47 22.26 6.89-1.28Zm-38.07-27.42 9.47-22.08 9.48 22.08h-18.95ZM496.29 61.57l-1.28 6.63h-33.86V4.44l6.99-1.28v58.41h28.15zM207.74 109.68H169.1V80.7l-6.99 1.29v63.75l6.99-1.29V116.3h38.64v29.44l6.99-1.29V80.7l-6.99 1.29v27.69zM253 80.24c-18.95 0-33.85 14.63-33.85 33.3s14.9 33.3 33.85 33.3 33.85-14.63 33.85-33.3-14.9-33.3-33.85-33.3Zm0 59.98c-14.81 0-26.49-11.78-26.49-26.68S238.19 86.86 253 86.86s26.49 11.78 26.49 26.68-11.68 26.68-26.49 26.68ZM338.93 130.75l-47.66-52.17v67.16h.09l6.91-1.36V96.34l47.65 52.16V80.61l-6.99 1.38v48.76zM384.19 80.24c-18.95 0-33.85 14.63-33.85 33.3s14.9 33.3 33.85 33.3 33.85-14.63 33.85-33.3-14.9-33.3-33.85-33.3Zm0 59.98c-14.81 0-26.5-11.78-26.5-26.68s11.68-26.68 26.5-26.68 26.49 11.78 26.49 26.68-11.68 26.68-26.49 26.68ZM457.79 101.4c0-11.59-8.92-20.05-22.63-20.05h-12.7v64.4h.12l6.87-1.36v-25.6l21.89 26.95 7.9-1.36-19.49-23.67c10.76-1.56 18.03-9.11 18.03-19.32Zm-28.33 13.98V87.97h5.7c9.48 0 15.27 5.7 15.27 13.52s-5.8 13.89-15.27 13.89h-5.7Z" class="cls-2"/><path d="m483.37 110.23-4.23-1.38c-8.56-2.76-11.13-6.72-11.13-11.68 0-5.98 4.42-10.3 11.04-10.3 4.97 0 9.84 2.02 14.9 5.8l1.38-7.27c-4.97-3.31-10.95-5.15-16.28-5.15-10.49 0-18.12 7.36-18.12 16.93 0 7.54 3.59 14.63 15.73 18.58l4.23 1.38c6.9 2.21 9.75 6.62 9.75 11.5 0 6.72-5.06 11.59-12.51 11.59-6.81 0-13.16-3.77-17.57-8.28l-1.56 7.64c4.23 3.59 10.86 7.27 19.13 7.27 11.59 0 19.69-7.73 19.69-18.31 0-8.19-4.51-15.09-14.44-18.31Z" class="cls-2"/><circle cx="75" cy="75" r="75" style="fill:url(#linear-gradient)"/><path d="M112.7 125.68 61.82 75.02l50.88-50.7" class="cls-3"/><path d="m37.3 24.32 50.88 50.66-50.88 50.7" class="cls-3"/></g></svg>