<svg width="151" height="48" viewBox="0 0 151 48" fill="none" xmlns="http://www.w3.org/2000/svg">
<g id="Layer 2">
<g id="Layer 1">
<g id="Clip path group">
<mask id="mask0_867_50" style="mask-type:luminance" maskUnits="userSpaceOnUse" x="-1" y="0" width="49" height="49">
<g id="clip-path">
<path id="Vector" d="M24.0013 1.3559e-07C19.2542 -0.00050434 14.6135 1.40672 10.6662 4.0437C6.71886 6.68069 3.64216 10.429 1.82517 14.8146C0.00817691 19.2002 -0.467492 24.0262 0.458314 28.6821C1.38412 33.3381 3.66982 37.6149 7.02636 40.9718C10.3829 44.3287 14.6595 46.6149 19.3154 47.5412C23.9712 48.4675 28.7972 47.9923 33.183 46.1758C37.5688 44.3593 41.3175 41.283 43.9549 37.3359C46.5923 33.3889 48 28.7484 48 24.0013C48 17.6362 45.4716 11.5318 40.9711 7.03071C36.4705 2.52967 30.3664 0.000676553 24.0013 1.3559e-07Z" fill="white"/>
</g>
</mask>
<g mask="url(#mask0_867_50)">
<g id="Group">
<path id="Vector_2" d="M48 0H0V48H48V0Z" fill="url(#paint0_linear_867_50)"/>
</g>
</g>
</g>
<g id="Group_2" opacity="0.54">
<g id="Clip path group_2">
<mask id="mask1_867_50" style="mask-type:luminance" maskUnits="userSpaceOnUse" x="10" y="6" width="22" height="35">
<g id="clip-path-2">
<path id="Vector_3" d="M31.3292 6.28467H10.7177V40.241H31.3292V6.28467Z" fill="white"/>
</g>
</mask>
<g mask="url(#mask1_867_50)">
<g id="Group_3">
<path id="Vector_4" d="M13.0132 39.9859L29.0336 24.0344L13.0132 8.07007" fill="white"/>
</g>
</g>
</g>
</g>
<g id="Group_4" opacity="0.54">
<g id="Clip path group_3">
<mask id="mask2_867_50" style="mask-type:luminance" maskUnits="userSpaceOnUse" x="16" y="6" width="22" height="35">
<g id="clip-path-3">
<path id="Vector_5" d="M37.3436 6.28467H16.7321V40.241H37.3436V6.28467Z" fill="white"/>
</g>
</mask>
<g mask="url(#mask2_867_50)">
<g id="Group_5">
<path id="Vector_6" d="M35.048 39.9859L19.025 24.0344L35.048 8.07007" fill="white"/>
</g>
</g>
</g>
</g>
<path id="Vector_7" d="M54.4888 44.5489V25.9473L56.1518 25.5188V34.1781H66.7113V25.9473L68.3743 25.5188V44.3347L66.7113 44.5489V35.8386H56.1518V44.3347L54.4888 44.5489Z" fill="white"/>
<path id="Vector_8" d="M89.7612 35.1397C89.7612 40.4756 85.313 44.7632 80.0332 44.7632C74.7534 44.7632 70.3026 40.4756 70.3026 35.1397C70.3026 29.8038 74.7509 25.5188 80.0332 25.5188C85.3155 25.5188 89.7612 29.8064 89.7612 35.1397ZM72.1237 35.1397C72.1237 39.4758 75.7431 43.1002 80.0306 43.1002C84.3182 43.1002 87.9376 39.4834 87.9376 35.1397C87.9376 30.796 84.3182 27.1792 80.0306 27.1792C75.7431 27.1792 72.1237 30.7986 72.1237 35.1397Z" fill="white"/>
<path id="Vector_9" d="M103.994 25.9473L105.654 25.6259V44.7555H105.595L93.2938 29.9059H93.2403V44.327L91.5773 44.5413V25.5188H91.6308L103.94 40.2996H103.994V25.9473Z" fill="white"/>
<path id="Vector_10" d="M126.936 35.1397C126.936 40.4756 122.488 44.7632 117.206 44.7632C111.923 44.7632 107.478 40.4756 107.478 35.1397C107.478 29.8038 111.926 25.5188 117.206 25.5188C122.486 25.5188 126.936 29.8064 126.936 35.1397ZM109.299 35.1397C109.299 39.4758 112.918 43.1002 117.206 43.1002C121.493 43.1002 125.113 39.4834 125.113 35.1397C125.113 30.796 121.496 27.1792 117.206 27.1792C112.916 27.1792 109.299 30.7986 109.299 35.1397Z" fill="white"/>
<path id="Vector_11" d="M128.678 44.5491V25.9475H132.377C135.438 25.9475 137.733 28.1181 137.733 31.3344C137.733 34.0942 136.098 36.1066 133.366 36.5887L139.008 43.6641L137.32 44.5491L130.459 35.571H130.336V44.3349L128.678 44.5491ZM130.336 35.247H132.632C134.831 35.247 135.902 33.6121 135.902 31.3344C135.902 29.549 134.626 27.608 132.657 27.608H130.336V35.247Z" fill="white"/>
<path id="Vector_12" d="M140.174 40.5292C141.304 42.2713 142.64 43.1053 144.732 43.1053C146.984 43.1053 148.645 41.7917 148.645 39.4605C148.645 34.3159 139.207 37.1292 139.207 30.7221C139.207 27.3731 141.834 25.5239 144.969 25.5239C145.884 25.5392 146.786 25.742 147.62 26.1197C148.453 26.4974 149.201 27.0421 149.815 27.72L148.795 28.9545C147.642 27.9343 146.571 27.1844 144.969 27.1844C142.827 27.1844 141.031 28.2837 141.031 30.615C141.031 35.2061 150.468 32.7881 150.468 39.2998C150.468 42.6513 147.948 44.7683 144.704 44.7683C142.212 44.7683 140.174 43.7481 138.889 41.552L140.174 40.5292Z" fill="white"/>
<path id="Vector_13" d="M115.05 16.8341C115.05 18.6042 114.244 20.1499 110.949 20.1499H108.146V13.8651V10.631V5.10123H111.362C113.214 5.10123 114.678 6.22605 114.678 8.2895C114.678 10.3529 112.581 11.6538 109.901 11.6563L109.391 13.3168L111.5 13.3295C113.796 13.3295 115.071 14.8038 115.071 16.8392M113.944 12.3118C115.499 11.5466 116.356 10.2203 116.356 8.26399C116.356 4.91249 114.293 3.43823 111.156 3.43823H106.473V21.8307H111.082C114.997 21.8307 116.872 20.0453 116.872 16.8443C116.872 14.6201 115.933 13.3066 113.923 12.3169" fill="white"/>
<path id="Vector_14" d="M148.678 21.8308L149.188 20.1678H142.485V3.01489L140.824 3.4434V21.8308H148.678ZM131.632 12.9317H125.49L128.576 6.7949L131.632 12.9317ZM132.568 14.5947L136.348 22.2057L137.955 21.8308L128.602 3.01489H128.551L119.195 21.8308L120.963 22.2593L124.689 14.6074L132.568 14.5947ZM93.1153 4.67789C97.4054 4.67789 101.022 8.29466 101.022 12.6384C101.022 16.9821 97.4054 20.5988 93.1153 20.5988C88.8251 20.5988 85.2084 16.9795 85.2084 12.6384C85.2084 8.29721 88.8277 4.67789 93.1153 4.67789ZM93.1153 3.01489C87.8355 3.01489 83.3872 7.30502 83.3872 12.6384C83.3872 17.9717 87.8355 22.2593 93.1153 22.2593C98.395 22.2593 102.846 17.9717 102.846 12.6384C102.846 7.30502 98.395 3.01489 93.1153 3.01489ZM82.6399 21.8308L83.15 20.1678H76.4444V3.01489L74.784 3.4434V21.8308H82.6399ZM70.2005 11.8604H63.1787L62.6431 13.5183H68.5401V18.8032C67.0913 19.9 65.538 20.5886 63.6939 20.5886C59.5339 20.5988 56.1135 16.9259 56.1135 12.4981C56.1012 11.467 56.2952 10.4439 56.6841 9.48896C57.073 8.53399 57.6489 7.66643 58.378 6.93732C59.1071 6.20821 59.9747 5.63226 60.9297 5.24337C61.8846 4.85447 62.9077 4.66048 63.9388 4.67279C65.6808 4.67279 67.5096 5.69304 68.8717 6.71328L69.8919 5.43798C68.4712 4.04534 65.8977 3.0251 63.9158 3.0251C57.9907 3.0251 54.2924 7.58304 54.2924 12.5134C54.2924 18.1961 58.4728 22.2695 63.5409 22.2695C65.8364 22.2695 68.132 21.3844 70.2133 19.7775L70.2005 11.8604Z" fill="white"/>
</g>
</g>
<defs>
<linearGradient id="paint0_linear_867_50" x1="0.0685605" y1="23.9552" x2="48.0686" y2="23.9552" gradientUnits="userSpaceOnUse">
<stop stop-color="#FFD900"/>
<stop offset="0.01" stop-color="#FFD900"/>
<stop offset="0.11" stop-color="#F8D708"/>
<stop offset="0.29" stop-color="#E4D220"/>
<stop offset="0.5" stop-color="#C4CA45"/>
<stop offset="0.75" stop-color="#97BE7A"/>
<stop offset="1" stop-color="#63B1B6"/>
</linearGradient>
</defs>
</svg>
