<svg xmlns="http://www.w3.org/2000/svg" xml:space="preserve" viewBox="0 0 96.7 50"><path fill="#ffffff" d="M14 .2c-2.8 6-13.2 11.8-.4 21C17 23.8 23 25.4 20 31.4c-.2.4.2.6.6.2 4.2-5 11.2-12.8 5.4-19.2-3.4-3.6-10.2-6-11.6-9.4-.2-.6 0-1.6.4-2.4.2-.6-.6-.8-.8-.4zM8 20.8c-1.4 4-9 8.6 1 14 2.4 1.6 5.2 3.2 5 5.8-.2.4.2.4.4.2 3.2-3.8 5.8-9.2 1.8-12.8-2.2-2-7.2-3.2-7.6-6.6 0-.6-.6-.6-.6-.6zM0 45.6l1.2-3.4h25.2l1.2 3.4m-6.8 0L19.4 50h-11l-1.6-4.4m46.4-18.8c4.8-3.6 2-10.2-1.8-10h-12v20.6H44l8.2-.2c5.2 0 7.4-8.8 1-10.4zm-3.4-2h-5.6v-4.6l5.8.2c1.8-.2 2.8 4.6-.2 4.4zm1 8.8h-6.6v-4.8l6.6-.2c2.6 0 2.4 5 0 5zm22.4-6.8c4.8-3.6 2-10.2-1.8-10h-12v20.6H64l8.2-.2c5 0 7.4-8.8 1-10.4zm-3.6-2H64v-4.6l5.8.2c1.8-.2 2.8 4.6-.2 4.4zm1 8.8H64v-4.8l6.6-.2c2.6 0 2.4 5 0 5zm22.2-6.8c4.8-3.6 2-10.2-1.8-10H79v20.6h4.6l8.2-.2c5 0 7.4-8.8 1-10.4zm-3.4-2h-5.6v-4.6l5.8.2c1.8-.2 2.6 4.6-.2 4.4zm.8 8.8h-6.6v-4.8l6.6-.2c2.6 0 2.6 5 0 5z"/></svg>
