<svg width="13" height="12" viewBox="0 0 13 12" fill="none" xmlns="http://www.w3.org/2000/svg">
<g id="chevron-up" clip-path="url(#clip0_1279_150)">
<path id="Vector" d="M11.3017 9.48569C10.9839 9.48563 10.679 9.36291 10.4543 9.14455L6.50749 5.31043L2.56066 9.14455C2.45009 9.25575 2.31784 9.34445 2.17161 9.40547C2.02538 9.46649 1.86811 9.49861 1.70897 9.49996C1.54982 9.5013 1.392 9.47184 1.2447 9.4133C1.0974 9.35475 0.963583 9.2683 0.851048 9.15898C0.738512 9.04965 0.649516 8.91966 0.589252 8.77657C0.528988 8.63347 0.498662 8.48016 0.500045 8.32556C0.501428 8.17096 0.534492 8.01818 0.597307 7.87613C0.660122 7.73407 0.75143 7.6056 0.865904 7.49819L5.66012 2.8409C5.88488 2.62262 6.18968 2.5 6.50749 2.5C6.82531 2.5 7.13011 2.62262 7.35487 2.8409L12.1491 7.49819C12.3167 7.66102 12.4308 7.86847 12.477 8.09429C12.5232 8.32011 12.4995 8.55418 12.4088 8.7669C12.3181 8.97962 12.1645 9.16145 11.9674 9.28939C11.7704 9.41733 11.5387 9.48564 11.3017 9.48569Z" fill="#111928"/>
</g>
<defs>
<clipPath id="clip0_1279_150">
<rect width="12" height="12" fill="white" transform="translate(0.5)"/>
</clipPath>
</defs>
</svg>
