<svg width="13" height="12" viewBox="0 0 13 12" fill="none" xmlns="http://www.w3.org/2000/svg">
<g id="chevron-down" clip-path="url(#clip0_1279_162)">
<path id="Vector" d="M6.51475 9.5C6.19651 9.49993 5.89134 9.37723 5.66635 9.15886L0.866346 4.50174C0.751734 4.39434 0.660315 4.26586 0.597424 4.12382C0.534533 3.98177 0.50143 3.82899 0.500045 3.6744C0.498661 3.51981 0.529023 3.36649 0.58936 3.22341C0.649697 3.08032 0.7388 2.95033 0.851472 2.84101C0.964143 2.73169 1.09813 2.64524 1.2456 2.5867C1.39308 2.52816 1.55109 2.4987 1.71043 2.50004C1.86976 2.50139 2.02723 2.53351 2.17363 2.59452C2.32004 2.65554 2.45245 2.74424 2.56315 2.85544L6.51475 6.68942L10.4663 2.85544C10.6927 2.64336 10.9958 2.52601 11.3104 2.52866C11.6251 2.53131 11.926 2.65376 12.1485 2.86962C12.371 3.08549 12.4972 3.37751 12.5 3.68278C12.5027 3.98805 12.3817 4.28215 12.1631 4.50174L7.36314 9.15886C7.13815 9.37723 6.83298 9.49993 6.51475 9.5Z" fill="#6B7280"/>
</g>
<defs>
<clipPath id="clip0_1279_162">
<rect width="12" height="12" fill="white" transform="translate(0.5)"/>
</clipPath>
</defs>
</svg>
