<svg width="12" height="12" viewBox="0 0 12 12" fill="none" xmlns="http://www.w3.org/2000/svg">
<g id="eye-slash-outline" clip-path="url(#clip0_2405_280)">
<g id="Vector">
<path d="M1.2 8.19431L2.0538 7.32468C1.68442 6.95595 1.39625 6.51152 1.2084 6.02085C1.4256 5.42847 3.447 2.95028 6 2.95028C6.111 2.95028 6.2166 2.9686 6.3246 2.97776L7.3656 1.9182C6.92025 1.79581 6.46129 1.73218 6 1.72889C2.7672 1.72889 0 4.98755 0 6.00375C0.156483 6.8469 0.577575 7.61559 1.2 8.19431Z" fill="#6B7280"/>
<path fill-rule="evenodd" clip-rule="evenodd" d="M0.866707 11.397C0.965353 11.4641 1.08133 11.5 1.19998 11.5C1.3591 11.5 1.51169 11.4356 1.62418 11.3211L4.78101 8.10798C5.14962 8.3292 5.57045 8.44653 6 8.44653C6.63652 8.44653 7.24697 8.18916 7.69706 7.73105C8.14715 7.27294 8.4 6.65162 8.4 6.00375C8.4 5.56654 8.28473 5.13821 8.06738 4.76303L11.2242 1.54996C11.2815 1.49362 11.3272 1.42624 11.3586 1.35173C11.3901 1.27722 11.4066 1.19709 11.4073 1.116C11.408 1.03491 11.3928 0.954497 11.3627 0.879445C11.3325 0.804393 11.288 0.736208 11.2316 0.678868C11.1753 0.621529 11.1083 0.576183 11.0346 0.545476C10.9608 0.51477 10.8818 0.499318 10.8021 0.500023C10.7225 0.500728 10.6437 0.517575 10.5705 0.54958C10.4973 0.581586 10.4311 0.62811 10.3758 0.686438L7.21898 3.89951C7.1228 3.84179 7.02241 3.79075 6.91844 3.74692C6.4799 3.56203 5.99734 3.51366 5.53178 3.60791C5.06623 3.70217 4.63859 3.93482 4.30295 4.27645C3.9673 4.61807 3.73872 5.05334 3.64612 5.52719C3.55351 6.00104 3.60104 6.4922 3.78269 6.93856C3.82576 7.04438 3.8759 7.14656 3.93261 7.24445L0.775782 10.4575C0.691896 10.543 0.634772 10.6518 0.611632 10.7702C0.588491 10.8886 0.600373 11.0114 0.645775 11.123C0.691177 11.2346 0.768061 11.3299 0.866707 11.397ZM5.6893 7.18349C5.71458 7.19039 5.74012 7.19645 5.76589 7.20167C5.99867 7.2488 6.23995 7.22461 6.45922 7.13217C6.67849 7.03972 6.86591 6.88317 6.99777 6.68232C7.12962 6.48146 7.2 6.24532 7.2 6.00375C7.2 5.89603 7.18602 5.78978 7.15908 5.68751L5.6893 7.18349ZM6.31067 4.824L4.84091 6.31996C4.83414 6.29424 4.82818 6.26826 4.82306 6.24203C4.77676 6.00511 4.80052 5.75952 4.89135 5.53635C4.98217 5.31317 5.13598 5.12241 5.33332 4.9882C5.53066 4.85399 5.76266 4.78236 6 4.78236C6.10582 4.78236 6.2102 4.79659 6.31067 4.824Z" fill="#6B7280"/>
<path d="M10.6926 3.92311L9.84 4.78847C10.2227 5.14252 10.5436 5.56004 10.7892 6.02329C10.3619 6.94408 9.68294 7.71998 8.83354 8.25807C7.98415 8.79616 7.00035 9.07362 6 9.05722C5.8842 9.05722 5.7732 9.04989 5.6622 9.04379L4.599 10.1253C5.05943 10.2263 5.52901 10.2777 6 10.2786C9.8718 10.2786 12 7.06758 12 6.00375C12 5.29168 11.0178 4.24861 10.6926 3.92311Z" fill="#6B7280"/>
</g>
</g>
<defs>
<clipPath id="clip0_2405_280">
<rect width="12" height="12" fill="white"/>
</clipPath>
</defs>
</svg>
