<svg xmlns="http://www.w3.org/2000/svg" xml:space="preserve" viewBox="0 0 95.5 25"><path fill="#fff" d="M9.2 2.3h2.1c1.3-.2 2.6 0 3.8.5 1.5.9 2.6 2.3 3 4 .3.9.3.9 1.1.6h.6v-7H0v1.2h.8c.7 0 1.4.3 1.8.9.8 1.2.9 2.6.9 9.6 0 7.5-.2 9.3-.9 10.3-.4.5-.9.8-1.5.8-1.1.2-1.1.2-1.1.7v.5h12.4c.2-.3.2-.7 0-1-.3-.1-.6-.1-.9-.2-.3 0-.7-.1-1-.2-.9-.7-1.5-1.8-1.3-3-.2-1.2-.3-3.4-.3-5.3v-1.4h.7c.9 0 1.8.1 2.7.3.9.5 1.4 1.4 1.6 2.4l.2.6h1.1V8.4h-1l-.2.8c-.1 1-.8 1.9-1.7 2.4-.4.1-.9.2-1.3.1H8.9v-2c0-2.1.1-6.4.2-7.1l.1-.3zm85.9 14.6a6.9 6.9 0 0 0-3.8-2.9c-1.2-.4-2.3-1-3.3-1.8-.4-.4-.6-1-.5-1.6 0-.6.2-1.1.6-1.5.6-.6 1.4-.8 2.2-.6 1.6.5 2.9 1.8 3.2 3.5.3.8.3.8.9.6l.3-.1V7.7l-.2-.1c-1.8-.6-3.7-.9-5.6-.8-1.6 0-3.2.7-4.4 1.8a5 5 0 0 0-1.6 4c0 1.1.5 2.2 1.2 3 .9.9 1.9 1.5 3.1 1.8 2.8 1.1 3.7 1.8 3.7 3.1 0 1.1-.7 2.1-1.8 2.4-.6.1-1.3.1-1.9 0-1.7-.7-3-2.1-3.4-3.9l-.2-.6h-.3c-.2 0-.3 0-.5.1h-.2v5.2h.3c1.2.4 2.5.7 3.8.8h1.8c.8.1 1.6 0 2.4-.2 2-.4 3.6-1.8 4.3-3.7.2-.5.3-1.1.3-1.7.1-.5 0-1.3-.4-2zM77.8 7.4c-2.2-.9-4.7-.9-6.9.2-2 1-3.6 2.8-4.2 5-.4 1.2-.6 2.4-.5 3.7 0 .7 0 1.4.2 2 .6 3.4 3.2 6 6.6 6.6 1.1.1 2.1.1 3.2 0 1.1-.2 2.2-.6 3.1-1.2.8-.4 1.5-1.1 1.9-1.8-.1-.2-.2-.4-.4-.6l-.6.3c-.9.6-2 .9-3.1.9a5.05 5.05 0 0 1-4.8-2.7c-.6-1.1-.9-2.4-.9-3.7v-.7h10.2v-1.5c-.1-2.8-1.5-5.2-3.8-6.5zm-5.1 6.3h-1.3v-1.1c.4-2.8 1.5-4.4 2.8-4.4 1.3 0 1.8 1.6 2.1 4.6v.8h-1.1l-2.5.1zM46.3 6.8c-.6 0-1.3.1-1.8.4-1.2.6-2.2 1.6-2.8 2.8l-.2.4V6.8h-.1c-.2 0-7 1.4-7.2 1.4-.2.1-.1.1-.1.4s0 .4.1.4l.7.1c.4 0 .8.2 1 .5.5.6.6 1.7.6 6.2.1 2 0 4.1-.3 6.1-.1.6-.6 1.1-1.3 1.2l-.6.1H34v.5c-.1.2-.1.4 0 .5h10.3v-1c-.6 0-1.2-.1-1.8-.2-.7-.4-1.1-1.1-1-1.8-.1-1.1-.2-4.2-.2-6.6s0-2.5.2-2.7c.6-.5 1.4-.7 2.1-.7.7 0 1.4.2 2.1.5.2.1.5.2.7.3 0 0 1.8-4.4 1.8-4.6-.4-.4-1.2-.7-1.9-.6zm-12.4 7.7c-.1-2.7-1.5-5.1-3.8-6.5a9.64 9.64 0 0 0-8.6-.2c-1.9 1-3.4 2.7-4 4.8-.7 2.3-.7 4.7 0 7 .4 1.3 1 2.4 2 3.3 1.2 1.1 2.6 1.8 4.2 2.1 1 .1 2.1.1 3.1 0 .4-.1.8-.1 1.1-.2 3-.9 5.3-3.4 5.9-6.5.2-1.3.2-2.6.1-3.8zm-7.6 9.2c-1.8.6-3.2-1.2-3.7-5-.2-2-.2-3.9 0-5.9.4-3 1.3-4.5 2.8-4.5.6 0 1.2.2 1.5.7 1.2 1.2 1.8 3.7 1.8 7.3.2 2.1-.2 4.2-1 6.1-.2.6-.8 1-1.4 1.3 0-.1 0 0 0 0zm33-16.5c-.5-.1-1-.1-1.6 0-1 0-2 .2-2.9.6l-.5.2V4c.1-1.3.1-2.7 0-4-.2 0-7.2 1.3-7.3 1.4-.1.1-.1.3 0 .4 0 .4 0 .4.8.6.2.1.5.1.7.3.4.3.6.8.7 1.3.2 1.4.3 2.8.2 4.2v16.1l.5.1c.7.2 2.8.5 3.5.6 1.4.1 2.7.1 4.1 0 3.1-.3 5.7-2.3 6.9-5.2.3-.9.6-1.8.7-2.8.1-1.3.1-2.6-.1-3.9-.5-2.9-2.7-5.3-5.7-5.9zm-4.8 16.2c0-.2-.2-8.3-.1-11.5V9.4l.5-.1c.4-.1.7-.1 1.1 0 .4 0 .8 0 1.1.3 1.4 1 2.3 2.5 2.4 4.2.1 1.3.1 2.7 0 4-.1 1.9-.9 3.8-2.1 5.3-.4.3-.8.6-1.3.7-.4.1-.7.1-1.1 0-.4-.2-.4-.3-.5-.4z"/></svg>
