<svg xmlns="http://www.w3.org/2000/svg" xml:space="preserve" viewBox="0 0 107.9 25"><path fill="#ffffff" d="M13.9 5.7v13.5a5.7 5.7 0 1 0 11.4 0V5.7a5.7 5.7 0 1 0-11.4 0M18 19.2V5.7c0-.9.7-1.6 1.5-1.6h.2c.8 0 1.5.6 1.6 1.5v13.6c0 .9-.7 1.6-1.6 1.6-.9 0-1.7-.7-1.7-1.6M58.3.3H46.8v4.1h3.7v20.1h4.1V4.4h3.7V.3zm12.1 0v18.9c0 .9-.7 1.6-1.6 1.6-.9 0-1.6-.7-1.6-1.6V.3H63v18.9a5.8 5.8 0 0 0 11.6 0V.3h-4.2zm37.5 4.1V.3H97.8v24.2h10.1v-4.1h-6v-6.3h3.9V10h-3.9V4.4h6zm-65 20.1h-4.3l-3-11.5c1.6-.3 2.7-1.7 2.7-3.3V6.1c0-.9-.7-1.7-1.6-1.7H35v20.1h-4.1V.3h5.7c3.1 0 5.7 2.4 5.8 5.5v3.9c.1 2-.7 4-2.3 5.3l2.8 9.5zM88.6.3v13.3L84.4.3h-4.2v24.2h4.2V12.7l3.9 11.8h4.6V.3h-4.3zM0 .7v24.2h4.3V14.5h4v-4.1h-4V4.8h6.3V.7H0z"/></svg>
