<svg width="101" height="33" viewBox="0 0 101 33" fill="none" xmlns="http://www.w3.org/2000/svg">
<g clip-path="url(#clip0_311_793)">
<mask id="mask0_311_793" style="mask-type:luminance" maskUnits="userSpaceOnUse" x="-1" y="0" width="33" height="33">
<path d="M16.0006 0.5C12.8359 0.499664 9.74209 1.43781 7.11054 3.1958C4.479 4.95379 2.42786 7.45267 1.21653 10.3764C0.00520713 13.3002 -0.311906 16.5174 0.305299 19.6214C0.922503 22.7254 2.4463 25.5766 4.68399 27.8146C6.92168 30.0525 9.77276 31.5766 12.8767 32.1941C15.9806 32.8117 19.1979 32.4949 22.1218 31.2839C25.0456 30.0729 27.5447 28.022 29.303 25.3906C31.0613 22.7593 31.9998 19.6656 31.9998 16.5008C31.9998 12.2575 30.3142 8.18783 27.3138 5.18714C24.3134 2.18645 20.244 0.500451 16.0006 0.5Z" fill="white"/>
</mask>
<g mask="url(#mask0_311_793)">
<path d="M32 0.5H0V32.5H32V0.5Z" fill="url(#paint0_linear_311_793)"/>
</g>
<g opacity="0.54">
<mask id="mask1_311_793" style="mask-type:luminance" maskUnits="userSpaceOnUse" x="7" y="4" width="14" height="24">
<path d="M20.8855 4.6898H7.14453V27.3274H20.8855V4.6898Z" fill="white"/>
</mask>
<g mask="url(#mask1_311_793)">
<path d="M8.6748 27.1573L19.3551 16.523L8.6748 5.8801" fill="white"/>
</g>
</g>
<g opacity="0.54">
<mask id="mask2_311_793" style="mask-type:luminance" maskUnits="userSpaceOnUse" x="11" y="4" width="14" height="24">
<path d="M24.8953 4.6898H11.1543V27.3274H24.8953V4.6898Z" fill="white"/>
</mask>
<g mask="url(#mask2_311_793)">
<path d="M23.3646 27.1573L12.6826 16.523L23.3646 5.8801" fill="white"/>
</g>
</g>
<path d="M36.3252 30.1994V17.7983L37.4339 17.5126V23.2855H44.4736V17.7983L45.5822 17.5126V30.0565L44.4736 30.1994V24.3925H37.4339V30.0565L36.3252 30.1994Z" fill="#8C8E90"/>
<path d="M59.8406 23.9265C59.8406 27.4838 56.8751 30.3422 53.3552 30.3422C49.8354 30.3422 46.8682 27.4838 46.8682 23.9265C46.8682 20.3693 49.8337 17.5126 53.3552 17.5126C56.8768 17.5126 59.8406 20.371 59.8406 23.9265ZM48.0823 23.9265C48.0823 26.8172 50.4951 29.2335 53.3535 29.2335C56.2119 29.2335 58.6248 26.8223 58.6248 23.9265C58.6248 21.0308 56.2119 18.6196 53.3535 18.6196C50.4951 18.6196 48.0823 21.0325 48.0823 23.9265Z" fill="#8C8E90"/>
<path d="M69.3284 17.7983L70.4353 17.584V30.3371H70.3962L62.1952 20.4373H62.1594V30.0514L61.0508 30.1943V17.5126H61.0865L69.2927 27.3665H69.3284V17.7983Z" fill="#8C8E90"/>
<path d="M84.6238 23.9265C84.6238 27.4838 81.6583 30.3422 78.1367 30.3422C74.6152 30.3422 71.6514 27.4838 71.6514 23.9265C71.6514 20.3693 74.6169 17.5126 78.1367 17.5126C81.6566 17.5126 84.6238 20.371 84.6238 23.9265ZM72.8655 23.9265C72.8655 26.8172 75.2783 29.2335 78.1367 29.2335C80.9951 29.2335 83.408 26.8223 83.408 23.9265C83.408 21.0308 80.9968 18.6196 78.1367 18.6196C75.2766 18.6196 72.8655 21.0325 72.8655 23.9265Z" fill="#8C8E90"/>
<path d="M85.7852 30.1993V17.7982H88.2507C90.2912 17.7982 91.8216 19.2453 91.8216 21.3895C91.8216 23.2294 90.7316 24.571 88.9105 24.8924L92.6718 29.6093L91.5461 30.1993L86.972 24.2139H86.8904V30.0565L85.7852 30.1993ZM86.8904 23.9979H88.4208C89.8865 23.9979 90.6007 22.908 90.6007 21.3895C90.6007 20.1992 89.7505 18.9052 88.4378 18.9052H86.8904V23.9979Z" fill="#8C8E90"/>
<path d="M93.4488 27.5195C94.2021 28.6809 95.0931 29.2369 96.4874 29.2369C97.9889 29.2369 99.0959 28.3612 99.0959 26.807C99.0959 23.3773 92.8043 25.2529 92.8043 20.9814C92.8043 18.7488 94.5558 17.516 96.6456 17.516C97.2556 17.5262 97.857 17.6614 98.4127 17.9132C98.9684 18.165 99.4665 18.5281 99.8763 18.98L99.1962 19.803C98.4276 19.1229 97.7134 18.623 96.6456 18.623C95.2172 18.623 94.0201 19.3558 94.0201 20.91C94.0201 23.9707 100.312 22.3588 100.312 26.6999C100.312 28.9342 98.6316 30.3456 96.4687 30.3456C94.8074 30.3456 93.4488 29.6654 92.5918 28.2014L93.4488 27.5195Z" fill="#8C8E90"/>
<path d="M76.6999 11.7227C76.6999 12.9028 76.1626 13.9332 73.9657 13.9332H72.0969V9.74342V7.5873V3.90081H74.2411C75.4756 3.90081 76.4517 4.65069 76.4517 6.02632C76.4517 7.40195 75.0539 8.26916 73.2668 8.27086L72.9267 9.37783L74.333 9.38633C75.8633 9.38633 76.7135 10.3692 76.7135 11.7261M75.9619 8.70787C76.9992 8.19775 77.5705 7.31353 77.5705 6.00932C77.5705 3.77498 76.1949 2.79214 74.1034 2.79214H70.9814V15.0538H74.0541C76.6642 15.0538 77.914 13.8635 77.914 11.7295C77.914 10.2467 77.2883 9.37103 75.9483 8.71127" fill="#8C8E90"/>
<path d="M99.118 15.0538L99.4581 13.9451H94.9894V2.50989L93.8824 2.79556V15.0538H99.118ZM87.7541 9.12108H83.6596L85.7171 5.02989L87.7541 9.12108ZM88.3782 10.2297L90.8982 15.3038L91.9695 15.0538L85.7341 2.50989H85.7001L79.4629 15.0538L80.6413 15.3395L83.1256 10.2382L88.3782 10.2297ZM62.0763 3.61855C64.9364 3.61855 67.3475 6.02973 67.3475 8.92553C67.3475 11.8213 64.9364 14.2325 62.0763 14.2325C59.2162 14.2325 56.805 11.8196 56.805 8.92553C56.805 6.03143 59.2179 3.61855 62.0763 3.61855ZM62.0763 2.50989C58.5564 2.50989 55.5909 5.36998 55.5909 8.92553C55.5909 12.4811 58.5564 15.3395 62.0763 15.3395C65.5961 15.3395 68.5633 12.4811 68.5633 8.92553C68.5633 5.36998 65.5961 2.50989 62.0763 2.50989ZM55.0927 15.0538L55.4328 13.9451H50.9624V2.50989L49.8554 2.79556V15.0538H55.0927ZM46.7998 8.40691H42.1186L41.7615 9.51217H45.6928V13.0354C44.727 13.7666 43.6914 14.2257 42.462 14.2257C39.6887 14.2325 37.4084 11.7839 37.4084 8.83201C37.4002 8.14464 37.5295 7.46258 37.7888 6.82593C38.0481 6.18928 38.432 5.61091 38.9181 5.12484C39.4042 4.63876 39.9826 4.2548 40.6192 3.99554C41.2559 3.73627 41.9379 3.60694 42.6253 3.61515C43.7867 3.61515 45.0059 4.29532 45.9139 4.97548L46.594 4.12528C45.6469 3.19685 43.9312 2.51669 42.61 2.51669C38.6599 2.51669 36.1943 5.55532 36.1943 8.84221C36.1943 12.6307 38.9813 15.3463 42.36 15.3463C43.8904 15.3463 45.4208 14.7562 46.8083 13.685L46.7998 8.40691Z" fill="#8C8E90"/>
</g>
<defs>
<linearGradient id="paint0_linear_311_793" x1="0.045707" y1="16.4702" x2="32.0457" y2="16.4702" gradientUnits="userSpaceOnUse">
<stop stop-color="#FFD900"/>
<stop offset="0.01" stop-color="#FFD900"/>
<stop offset="0.11" stop-color="#F8D708"/>
<stop offset="0.29" stop-color="#E4D220"/>
<stop offset="0.5" stop-color="#C4CA45"/>
<stop offset="0.75" stop-color="#97BE7A"/>
<stop offset="1" stop-color="#63B1B6"/>
</linearGradient>
<clipPath id="clip0_311_793">
<rect width="100.312" height="32" fill="white" transform="translate(0 0.5)"/>
</clipPath>
</defs>
</svg>
