<svg width="151" height="48" viewBox="0 0 151 48" fill="none" xmlns="http://www.w3.org/2000/svg">
<mask id="mask0_311_1260" style="mask-type:luminance" maskUnits="userSpaceOnUse" x="-1" y="0" width="49" height="49">
<path d="M24.0009 1.3559e-07C19.2538 -0.00050434 14.6131 1.40672 10.6658 4.0437C6.71849 6.68069 3.64179 10.429 1.8248 14.8146C0.00781069 19.2002 -0.467858 24.0262 0.457948 28.6821C1.38375 33.3381 3.66945 37.6149 7.02599 40.9718C10.3825 44.3287 14.6591 46.6149 19.315 47.5412C23.9709 48.4675 28.7968 47.9923 33.1827 46.1758C37.5685 44.3593 41.3171 41.283 43.9545 37.3359C46.5919 33.3889 47.9996 28.7484 47.9996 24.0013C47.9996 17.6362 45.4713 11.5318 40.9707 7.03071C36.4702 2.52967 30.366 0.000676553 24.0009 1.3559e-07Z" fill="white"/>
</mask>
<g mask="url(#mask0_311_1260)">
<path d="M48 0H0V48H48V0Z" fill="url(#paint0_linear_311_1260)"/>
</g>
<g opacity="0.54">
<mask id="mask1_311_1260" style="mask-type:luminance" maskUnits="userSpaceOnUse" x="10" y="6" width="22" height="35">
<path d="M31.3293 6.28467H10.7178V40.241H31.3293V6.28467Z" fill="white"/>
</mask>
<g mask="url(#mask1_311_1260)">
<path d="M13.0137 39.9859L29.0341 24.0344L13.0137 8.07007" fill="white"/>
</g>
</g>
<g opacity="0.54">
<mask id="mask2_311_1260" style="mask-type:luminance" maskUnits="userSpaceOnUse" x="16" y="6" width="22" height="35">
<path d="M37.343 6.28467H16.7314V40.241H37.343V6.28467Z" fill="white"/>
</mask>
<g mask="url(#mask2_311_1260)">
<path d="M35.0474 39.9859L19.0244 24.0344L35.0474 8.07007" fill="white"/>
</g>
</g>
<path d="M54.4883 44.5489V25.9473L56.1513 25.5188V34.1781H66.7108V25.9473L68.3738 25.5188V44.3347L66.7108 44.5489V35.8386H56.1513V44.3347L54.4883 44.5489Z" fill="white"/>
<path d="M89.7604 35.1397C89.7604 40.4756 85.3121 44.7632 80.0323 44.7632C74.7526 44.7632 70.3018 40.4756 70.3018 35.1397C70.3018 29.8038 74.75 25.5188 80.0323 25.5188C85.3147 25.5188 89.7604 29.8064 89.7604 35.1397ZM72.1229 35.1397C72.1229 39.4758 75.7422 43.1002 80.0298 43.1002C84.3174 43.1002 87.9367 39.4834 87.9367 35.1397C87.9367 30.796 84.3174 27.1792 80.0298 27.1792C75.7422 27.1792 72.1229 30.7986 72.1229 35.1397Z" fill="white"/>
<path d="M103.994 25.9473L105.654 25.6259V44.7555H105.595L93.2937 29.9059H93.2401V44.327L91.5771 44.5413V25.5188H91.6307L103.94 40.2996H103.994V25.9473Z" fill="white"/>
<path d="M126.936 35.1397C126.936 40.4756 122.488 44.7632 117.206 44.7632C111.923 44.7632 107.478 40.4756 107.478 35.1397C107.478 29.8038 111.926 25.5188 117.206 25.5188C122.485 25.5188 126.936 29.8064 126.936 35.1397ZM109.299 35.1397C109.299 39.4758 112.918 43.1002 117.206 43.1002C121.493 43.1002 125.112 39.4834 125.112 35.1397C125.112 30.796 121.496 27.1792 117.206 27.1792C112.915 27.1792 109.299 30.7986 109.299 35.1397Z" fill="white"/>
<path d="M128.678 44.5491V25.9475H132.376C135.437 25.9475 137.732 28.1181 137.732 31.3344C137.732 34.0942 136.097 36.1066 133.366 36.5887L139.008 43.6641L137.319 44.5491L130.458 35.571H130.336V44.3349L128.678 44.5491ZM130.336 35.247H132.631C134.83 35.247 135.901 33.6121 135.901 31.3344C135.901 29.549 134.626 27.608 132.657 27.608H130.336V35.247Z" fill="white"/>
<path d="M140.174 40.5292C141.304 42.2713 142.641 43.1053 144.732 43.1053C146.984 43.1053 148.645 41.7917 148.645 39.4605C148.645 34.3159 139.207 37.1292 139.207 30.7221C139.207 27.3731 141.835 25.5239 144.969 25.5239C145.884 25.5392 146.786 25.742 147.62 26.1197C148.454 26.4974 149.201 27.0421 149.815 27.72L148.795 28.9545C147.642 27.9343 146.571 27.1844 144.969 27.1844C142.827 27.1844 141.031 28.2837 141.031 30.615C141.031 35.2061 150.468 32.7881 150.468 39.2998C150.468 42.6513 147.948 44.7683 144.704 44.7683C142.212 44.7683 140.174 43.7481 138.889 41.552L140.174 40.5292Z" fill="white"/>
<path d="M115.05 16.8341C115.05 18.6042 114.244 20.1499 110.949 20.1499H108.146V13.8651V10.631V5.10123H111.362C113.214 5.10123 114.678 6.22605 114.678 8.2895C114.678 10.3529 112.581 11.6538 109.901 11.6563L109.391 13.3168L111.5 13.3295C113.795 13.3295 115.071 14.8038 115.071 16.8392M113.943 12.3118C115.499 11.5466 116.356 10.2203 116.356 8.26399C116.356 4.91249 114.293 3.43823 111.156 3.43823H106.473V21.8307H111.082C114.997 21.8307 116.872 20.0453 116.872 16.8443C116.872 14.6201 115.933 13.3066 113.923 12.3169" fill="white"/>
<path d="M148.677 21.8308L149.188 20.1678H142.485V3.01489L140.824 3.4434V21.8308H148.677ZM131.632 12.9317H125.49L128.576 6.7949L131.632 12.9317ZM132.568 14.5947L136.348 22.2057L137.955 21.8308L128.602 3.01489H128.551L119.195 21.8308L120.962 22.2593L124.689 14.6074L132.568 14.5947ZM93.1149 4.67789C97.405 4.67789 101.022 8.29466 101.022 12.6384C101.022 16.9821 97.405 20.5988 93.1149 20.5988C88.8248 20.5988 85.208 16.9795 85.208 12.6384C85.208 8.29721 88.8273 4.67789 93.1149 4.67789ZM93.1149 3.01489C87.8351 3.01489 83.3868 7.30502 83.3868 12.6384C83.3868 17.9717 87.8351 22.2593 93.1149 22.2593C98.3947 22.2593 102.845 17.9717 102.845 12.6384C102.845 7.30502 98.3947 3.01489 93.1149 3.01489ZM82.6395 21.8308L83.1496 20.1678H76.4441V3.01489L74.7836 3.4434V21.8308H82.6395ZM70.2002 11.8604H63.1783L62.6427 13.5183H68.5397V18.8032C67.091 19.9 65.5376 20.5886 63.6936 20.5886C59.5335 20.5988 56.1131 16.9259 56.1131 12.4981C56.1008 11.467 56.2948 10.4439 56.6837 9.48896C57.0726 8.53399 57.6485 7.66643 58.3777 6.93732C59.1068 6.20821 59.9743 5.63226 60.9293 5.24337C61.8843 4.85447 62.9074 4.66047 63.9384 4.67279C65.6805 4.67279 67.5093 5.69304 68.8713 6.71328L69.8915 5.43798C68.4709 4.04534 65.8973 3.0251 63.9155 3.0251C57.9904 3.0251 54.292 7.58304 54.292 12.5134C54.292 18.1961 58.4724 22.2695 63.5405 22.2695C65.8361 22.2695 68.1316 21.3844 70.2129 19.7775L70.2002 11.8604Z" fill="white"/>
<defs>
<linearGradient id="paint0_linear_311_1260" x1="0.0685605" y1="23.9552" x2="48.0686" y2="23.9552" gradientUnits="userSpaceOnUse">
<stop stop-color="#FFD900"/>
<stop offset="0.01" stop-color="#FFD900"/>
<stop offset="0.11" stop-color="#F8D708"/>
<stop offset="0.29" stop-color="#E4D220"/>
<stop offset="0.5" stop-color="#C4CA45"/>
<stop offset="0.75" stop-color="#97BE7A"/>
<stop offset="1" stop-color="#63B1B6"/>
</linearGradient>
</defs>
</svg>
