<svg xmlns="http://www.w3.org/2000/svg" xml:space="preserve" viewBox="0 0 72.3 25"><path fill="#ffffff" d="M0 5.8h3.2v13.5H0v5.3h17.1v-5.3h-3.2V5.8h3.2V0H0v5.8zm43.4 13.4v-7.1C43.4 7.6 40.1 6 36 6c-2.9 0-5.1.8-7 3-.1.2-.3.4-.5.5V5.8H18v5.4h2.4v8.1H18v5.4h13.4v-5.4h-2.5v-4.6c0-2 1.5-3.4 3.5-3.4 1.5 0 2.8.8 2.8 2.4v5.6h-2.5v5.4h13.1v-5.4l-2.4-.1zm23.4-1.6h-7.1c0 2-1.4 2.9-3.1 2.9-3.1 0-3.4-2.6-3.4-5.1v-.1c0-2.5.2-5.1 3.4-5.1 2.4 0 2.9 2.1 2.9 4.1l7.2-.8c-.8-7.3-8-7.8-9.8-7.8h-.4c-6 0-11.8 2.9-11.8 9.6 0 1.4.3 2.7.8 3.8v.1c1.8 3.9 6.4 5.7 11 5.7 3.8 0 9.1-.9 10.3-6.7v-.6zm2.5 1a3 3 0 0 1 3 3 3 3 0 0 1-3 3 3 3 0 0 1-3-3c0-1.7 1.3-3 3-3z"/></svg>
