<svg width="225" height="103" viewBox="0 0 225 103" fill="none" xmlns="http://www.w3.org/2000/svg">
<path d="M175.6 94.9965C175.6 94.9965 176.991 93.7901 178.399 92.6004C179.076 92.0235 179.794 91.4097 180.323 90.9766C180.786 90.4575 181.099 90.1098 181.099 90.1098C178.171 83.5928 178.494 79.4338 179.27 76.5651C179.773 75.2103 181.673 72.2152 181.673 72.2152C182.678 74.1132 184.09 76.4333 184.738 79.1395C185.198 81.675 185.248 84.9886 183.118 87.9853C183.37 88.2376 189.776 79.6665 189.493 79.4562C187.288 76.7248 186.067 74.3452 185.386 72.3415C184.544 70.272 184.273 68.5936 184.368 67.2267C184.481 65.837 185.366 62.59 185.366 62.59C186.856 63.9701 188.778 65.6397 190.2 67.9845C190.985 69.1889 191.28 70.435 191.49 71.9274C191.614 73.4007 191.694 75.1552 190.999 76.9179C191.077 76.9344 192.193 74.4203 193.238 71.8721C193.837 70.6089 194.194 69.2458 194.448 68.2517C194.697 67.2174 194.869 66.5616 194.869 66.5616C189.432 62.8381 186.568 59.7386 185.663 53.9923C185.677 53.1583 185.84 52.6265 185.84 52.6265C189.29 53.8236 195.543 55.8351 195.572 63.6329C195.572 63.6329 195.861 60.9073 196.154 58.1923C196.297 56.8209 196.067 55.4544 196.057 54.4484C196.016 53.4095 195.982 52.7247 195.982 52.7247C189.71 51.3417 186.515 49.6004 184.821 47.3496C183.135 45.1696 182.68 42.7977 182.68 42.7977C186.646 42.9181 193.049 42.6142 195.682 49.7294C195.682 49.7294 195.55 49.0707 195.334 48.0826C195.133 47.086 194.766 45.7703 194.377 44.4478C193.553 41.8529 192.454 39.3522 192.454 39.3522C185.932 40.4819 182.336 39.0795 180.078 37.4497C177.865 35.7992 176.911 33.7167 176.911 33.7167C180.758 32.5943 186.784 30.5876 191.212 36.6435C191.212 36.6435 190.004 34.2345 188.569 31.9459C187.161 29.6364 185.519 27.5564 185.519 27.5564C179.458 30.5333 175.736 30.2506 173.307 29.647C172.152 29.2224 169.79 27.5924 169.79 27.5924C171.298 26.1846 173.211 24.5608 175.606 23.7424C177.947 22.9404 180.835 23.0437 183.638 25.3287C183.638 25.3287 183.358 24.9491 182.862 24.449C182.379 23.9766 181.743 23.3421 181.111 22.7047C179.759 21.4758 178.407 20.3364 178.407 20.3364C177.009 20.6465 174.956 20.7923 172.843 20.0669C170.624 19.3822 168.748 17.4821 165.016 13.6723C165.007 13.6539 164.983 13.6471 164.972 13.6542L164.998 13.6379L164.975 13.5949L165.038 13.6131C169.529 10.1517 174.033 11.2691 176.332 12.9991C178.809 14.7975 179.448 17.4358 179.689 18.7692C179.689 18.7692 181.187 19.9594 182.552 21.2815C183.236 21.9568 183.911 22.6568 184.429 23.1663C184.9 23.7246 185.22 24.0869 185.22 24.0869C183.05 20.8111 182.067 17.7607 181.442 14.6519C180.804 11.5911 180.585 8.51164 179.793 5.91147C179.793 5.91147 180.733 6.23892 182.111 6.96663C183.342 7.81963 185.15 9.0073 186.468 10.8804C189.349 14.4821 190.665 20.1907 186.982 26.1946C186.982 26.1946 188.736 28.4256 190.248 30.8903C191.777 33.3361 193.035 35.9414 193.035 35.9414C190.454 28.4904 192.755 22.6404 193.327 17.2831C193.327 17.2831 196.258 19.6753 197.779 23.8185C199.34 27.933 199.246 33.7021 194.197 38.4781C194.197 38.4781 195.385 41.1451 196.254 43.9411C197.125 46.7522 197.651 49.6794 197.651 49.6794C197.062 41.6683 200.593 36.6708 202.536 31.7232C202.536 31.7232 204.74 34.7712 205.209 39.2998C205.678 43.7101 204.393 49.8755 197.882 52.5247C197.882 52.5247 197.927 53.273 197.983 54.3674C198 55.4918 198.26 56.9696 198.053 58.4677C197.758 61.4086 197.444 64.3532 197.444 64.3532C199.577 56.7646 204.412 53.3442 207.857 48.9593C207.857 48.9593 208.102 49.9436 208.239 51.5361C208.387 53.14 208.414 55.3765 208.02 57.6953C206.722 62.2766 203.609 67.0682 196.724 67.0993C196.724 67.0993 196.529 67.8378 196.249 68.9295C196.006 70.0183 195.592 71.4829 194.945 72.8204C194.385 74.1854 193.787 75.5508 193.363 76.5846C192.986 77.4787 192.627 78.0271 192.535 78.1704C193.784 76.6733 194.697 75.2809 195.993 74.2949C197.158 73.2221 198.612 72.5118 199.783 71.7335C202.216 70.2429 204.861 69.2919 207.079 67.9939C207.079 67.9939 206.987 68.9856 206.65 70.4884C206.234 71.9869 205.809 74.1564 204.471 75.9618C203.204 77.8172 201.494 79.5751 199.321 80.5798C197.024 81.5048 194.248 81.6719 191.106 80.6293C191.379 80.8358 185.803 88.236 184.508 89.518C185.969 88.4641 187.287 87.6342 188.608 87.0057C189.996 86.3861 191.455 86.0065 192.873 85.7948C195.637 85.2626 198.311 85.1841 200.741 84.7766C200.741 84.7766 200.411 85.6625 199.714 86.9741C199.024 88.2814 197.911 89.9583 196.245 91.243C193.091 94.0735 187.997 95.4626 182.385 91.6798C182.385 91.6798 182.07 92.0042 181.593 92.5502C181.034 92.9923 180.319 93.6307 179.595 94.2374C178.147 95.4717 176.706 96.6978 176.706 96.6978L176.693 96.6732C176.678 96.6832 176.676 96.717 176.646 96.7361C176.183 97.0276 175.604 96.8691 175.336 96.3617C175.076 95.8881 175.218 95.2973 175.6 94.9965Z" fill="#C3B041"/>
<path d="M49.5938 94.6344C49.5938 94.6344 48.1996 93.4259 46.8046 92.2447C46.1118 91.6579 45.4123 91.0554 44.8718 90.6152C44.4225 90.1047 44.1015 89.7519 44.1015 89.7519C47.0374 83.2399 46.7031 79.0738 45.9448 76.2164C45.4186 74.8468 43.519 71.8524 43.519 71.8524C42.514 73.7504 41.109 76.0747 40.4628 78.7817C40.0065 81.32 39.9469 84.6272 42.0981 87.6373C41.8266 87.8776 35.4201 79.3058 35.6971 79.092C37.9021 76.3605 39.1377 73.9902 39.8265 71.9914C40.6661 69.9205 40.9206 68.2315 40.8459 66.8774C40.7183 65.4785 39.8361 62.2336 39.8361 62.2336C38.3411 63.6102 36.4212 65.2811 34.996 67.6238C34.2099 68.8275 33.9073 70.0686 33.7059 71.5667C33.5811 73.0393 33.52 74.8059 34.197 76.5572C34.1316 76.5815 33.0078 74.0625 31.9659 71.5164C31.3601 70.2489 31.0224 68.8979 30.7586 67.8981C30.5034 66.8595 30.3263 66.201 30.3263 66.201C35.7727 62.4831 38.6288 59.3786 39.5327 53.6316C39.5293 52.804 39.3572 52.2665 39.3572 52.2665C35.9055 53.4629 29.6554 55.4758 29.6283 63.2751C29.6283 63.2751 29.3304 60.5438 29.0408 57.8309C28.9096 56.4673 29.1246 55.0909 29.1357 54.0856C29.1822 53.0502 29.2158 52.3654 29.2158 52.3654C35.4917 50.9846 38.6822 49.2404 40.3656 46.9833C42.0686 44.8138 42.5115 42.4342 42.5115 42.4342C38.5471 42.556 32.1606 42.262 29.534 49.3815C29.534 49.3815 29.6416 48.7072 29.8569 47.7191C30.0902 46.7423 30.4327 45.4117 30.8355 44.0977C31.6484 41.4957 32.7416 38.9915 32.7416 38.9915C39.2697 40.1248 42.8616 38.7202 45.1348 37.0997C47.3394 35.4442 48.2776 33.3518 48.2776 33.3518C44.4471 32.2393 38.4127 30.2276 33.9971 36.2913C33.9971 36.2913 35.1882 33.8717 36.634 31.5894C38.0383 29.2778 39.6907 27.2042 39.6907 27.2042C45.7585 30.1853 49.485 29.9056 51.8879 29.2856C53.0572 28.8702 55.4263 27.2445 55.4263 27.2445C53.9027 25.8267 51.9814 24.198 49.6041 23.391C47.2564 22.5846 44.3865 22.6993 41.5571 24.9673C41.5571 24.9673 41.8408 24.5905 42.3392 24.0919C42.8187 23.6174 43.4563 22.9835 44.0939 22.3497C45.436 21.1144 46.7976 19.9814 46.7976 19.9814C48.1845 20.2844 50.2476 20.4366 52.3698 19.7169C54.5914 19.0336 56.4684 17.1342 60.1829 13.3137C60.1926 13.2953 60.2101 13.285 60.2191 13.2907L60.2011 13.2793L60.2239 13.2363L60.1673 13.2581C55.6847 9.80233 51.1654 10.9098 48.876 12.6462C46.3899 14.439 45.7515 17.0772 45.5041 18.4071C45.5041 18.4071 44.0172 19.6037 42.6538 20.9272C41.9725 21.6039 41.2879 22.2983 40.7691 22.807C40.3147 23.376 39.9793 23.7283 39.9793 23.7283C42.1473 20.4511 43.1402 17.4071 43.7592 14.2948C44.4144 11.2446 44.625 8.16018 45.4129 5.55716C45.4129 5.55716 44.47 5.88249 43.0906 6.60949C41.8649 7.46604 40.0432 8.64519 38.7254 10.5183C35.847 14.1214 34.5387 19.8349 38.2376 25.8488C38.2376 25.8488 36.4659 28.0684 34.958 30.536C33.432 32.9839 32.1741 35.5893 32.1741 35.5893C34.7419 28.1298 32.4506 22.2861 31.8822 16.9309C31.8822 16.9309 28.9308 19.3103 27.4279 23.4649C25.8554 27.5723 25.9606 33.3485 30.98 38.1053C30.98 38.1053 29.8221 40.7915 28.9417 43.5804C28.0706 46.3915 27.5587 49.3272 27.5587 49.3272C28.128 41.3041 24.6015 36.3094 22.6861 31.3789C22.6861 31.3789 20.4795 34.4254 19.9902 38.9412C19.5207 43.3515 20.7826 49.5021 27.3015 52.1562C27.3015 52.1562 27.2636 52.9087 27.217 54.0096C27.2056 55.1375 26.9347 56.6082 27.134 58.1014C27.4482 61.0542 27.7578 63.996 27.7578 63.996C25.6289 56.4103 20.7895 52.9871 17.3353 48.5964C17.3353 48.5964 17.1007 49.5871 16.9657 51.1811C16.8078 52.7786 16.7814 55.0158 17.1749 57.3339C18.4742 61.9159 21.587 66.7075 28.474 66.74C28.474 66.74 28.661 67.4736 28.9339 68.5611C29.1799 69.6512 29.5953 71.1166 30.2454 72.4562C30.8124 73.8254 31.4188 75.1965 31.8276 76.2204C32.2033 77.1137 32.5788 77.6728 32.6644 77.8118C31.4133 76.3134 30.4952 74.9181 29.2119 73.9399C28.0396 72.8629 26.5725 72.144 25.4294 71.3835C22.9807 69.8829 20.3412 68.9354 18.1175 67.6339C18.1175 67.6339 18.2109 68.6263 18.5557 70.1341C18.9671 71.6297 19.3971 73.8021 20.7295 75.604C21.997 77.4601 23.7116 79.2208 25.8852 80.2255C28.182 81.1505 30.9538 81.3147 34.0923 80.2701C33.8328 80.485 39.3972 87.8781 40.6889 89.1581C39.2235 88.1012 37.921 87.2813 36.6055 86.6563C35.2124 86.0332 33.7557 85.6551 32.3178 85.4313C29.5603 84.9026 26.8981 84.8319 24.4617 84.4202C24.4617 84.4202 24.8031 85.3132 25.4828 86.6141C26.1794 87.9257 27.2868 89.599 28.9654 90.8916C32.1168 93.7206 37.207 95.1068 42.8082 91.3177C42.8082 91.3177 43.1502 91.6591 43.6261 92.2044C44.1683 92.6358 44.8811 93.2729 45.6065 93.8803C47.058 95.1167 48.495 96.3407 48.495 96.3407L48.508 96.3161C48.5305 96.3303 48.5468 96.3733 48.5569 96.3797C49.002 96.6598 49.5971 96.5119 49.8657 96.0046C50.1199 95.5274 49.9922 94.9458 49.5938 94.6344Z" fill="#C3B041"/>
</svg>
