<svg width="24" height="24" viewBox="0 0 24 24" fill="none" xmlns="http://www.w3.org/2000/svg">
<g id="briefcase">
<g id="Vector">
<path d="M23.6484 13.5075C21.036 16.0506 16.518 17.3227 12 17.3227C7.482 17.3227 2.964 16.0506 0.3516 13.5075L0 13.1652V20.6637C0 21.2833 0.252856 21.8776 0.702944 22.3157C1.15303 22.7539 1.76348 23 2.4 23H21.6C22.2365 23 22.847 22.7539 23.2971 22.3157C23.7471 21.8776 24 21.2833 24 20.6637V13.1652L23.6484 13.5075Z" fill="#2C5558"/>
<path d="M21.6 5.67265H18V4.50449C18 3.57504 17.6207 2.68366 16.9456 2.02644C16.2705 1.36922 15.3548 1 14.4 1H9.6C8.64522 1 7.72955 1.36922 7.05442 2.02644C6.37928 2.68366 6 3.57504 6 4.50449V5.67265H2.4C1.76348 5.67265 1.15303 5.9188 0.702944 6.35694C0.252856 6.79509 0 7.38934 0 8.00897V9.86168L2.0484 11.8557C6.42 16.1078 17.58 16.1078 21.9516 11.8557L24 9.86168V8.00897C24 7.38934 23.7471 6.79509 23.2971 6.35694C22.847 5.9188 22.2365 5.67265 21.6 5.67265ZM12 12.6816C11.7627 12.6816 11.5307 12.6131 11.3333 12.4848C11.136 12.3564 10.9822 12.174 10.8913 11.9605C10.8005 11.747 10.7768 11.5122 10.8231 11.2856C10.8694 11.059 10.9836 10.8508 11.1515 10.6874C11.3193 10.5241 11.5331 10.4128 11.7659 10.3677C11.9987 10.3227 12.24 10.3458 12.4592 10.4342C12.6785 10.5226 12.8659 10.6724 12.9978 10.8645C13.1296 11.0566 13.2 11.2824 13.2 11.5135C13.2 11.8233 13.0736 12.1204 12.8485 12.3395C12.6235 12.5585 12.3183 12.6816 12 12.6816ZM15.6 5.67265H8.4V4.50449C8.4 4.19467 8.52643 3.89754 8.75147 3.67847C8.97652 3.4594 9.28174 3.33632 9.6 3.33632H14.4C14.7183 3.33632 15.0235 3.4594 15.2485 3.67847C15.4736 3.89754 15.6 4.19467 15.6 4.50449V5.67265Z" fill="#2C5558"/>
</g>
</g>
</svg>
