<svg width="24" height="24" viewBox="0 0 24 24" fill="none" xmlns="http://www.w3.org/2000/svg">
<g clip-path="url(#clip0_311_1170)">
<path d="M0 21.6C0 22.2365 0.252856 22.847 0.702944 23.2971C1.15303 23.7471 1.76348 24 2.4 24H21.6C22.2365 24 22.847 23.7471 23.2971 23.2971C23.7471 22.847 24 22.2365 24 21.6V9.6H0V21.6ZM16.8 12.6C16.8 12.4409 16.8632 12.2883 16.9757 12.1757C17.0883 12.0632 17.2409 12 17.4 12H18.6C18.7591 12 18.9117 12.0632 19.0243 12.1757C19.1368 12.2883 19.2 12.4409 19.2 12.6V13.8C19.2 13.9591 19.1368 14.1117 19.0243 14.2243C18.9117 14.3368 18.7591 14.4 18.6 14.4H17.4C17.2409 14.4 17.0883 14.3368 16.9757 14.2243C16.8632 14.1117 16.8 13.9591 16.8 13.8V12.6ZM16.8 17.4C16.8 17.2409 16.8632 17.0883 16.9757 16.9757C17.0883 16.8632 17.2409 16.8 17.4 16.8H18.6C18.7591 16.8 18.9117 16.8632 19.0243 16.9757C19.1368 17.0883 19.2 17.2409 19.2 17.4V18.6C19.2 18.7591 19.1368 18.9117 19.0243 19.0243C18.9117 19.1368 18.7591 19.2 18.6 19.2H17.4C17.2409 19.2 17.0883 19.1368 16.9757 19.0243C16.8632 18.9117 16.8 18.7591 16.8 18.6V17.4ZM10.8 12.6C10.8 12.4409 10.8632 12.2883 10.9757 12.1757C11.0883 12.0632 11.2409 12 11.4 12H12.6C12.7591 12 12.9117 12.0632 13.0243 12.1757C13.1368 12.2883 13.2 12.4409 13.2 12.6V13.8C13.2 13.9591 13.1368 14.1117 13.0243 14.2243C12.9117 14.3368 12.7591 14.4 12.6 14.4H11.4C11.2409 14.4 11.0883 14.3368 10.9757 14.2243C10.8632 14.1117 10.8 13.9591 10.8 13.8V12.6ZM10.8 17.4C10.8 17.2409 10.8632 17.0883 10.9757 16.9757C11.0883 16.8632 11.2409 16.8 11.4 16.8H12.6C12.7591 16.8 12.9117 16.8632 13.0243 16.9757C13.1368 17.0883 13.2 17.2409 13.2 17.4V18.6C13.2 18.7591 13.1368 18.9117 13.0243 19.0243C12.9117 19.1368 12.7591 19.2 12.6 19.2H11.4C11.2409 19.2 11.0883 19.1368 10.9757 19.0243C10.8632 18.9117 10.8 18.7591 10.8 18.6V17.4ZM4.8 12.6C4.8 12.4409 4.86321 12.2883 4.97574 12.1757C5.08826 12.0632 5.24087 12 5.4 12H6.6C6.75913 12 6.91174 12.0632 7.02426 12.1757C7.13679 12.2883 7.2 12.4409 7.2 12.6V13.8C7.2 13.9591 7.13679 14.1117 7.02426 14.2243C6.91174 14.3368 6.75913 14.4 6.6 14.4H5.4C5.24087 14.4 5.08826 14.3368 4.97574 14.2243C4.86321 14.1117 4.8 13.9591 4.8 13.8V12.6ZM4.8 17.4C4.8 17.2409 4.86321 17.0883 4.97574 16.9757C5.08826 16.8632 5.24087 16.8 5.4 16.8H6.6C6.75913 16.8 6.91174 16.8632 7.02426 16.9757C7.13679 17.0883 7.2 17.2409 7.2 17.4V18.6C7.2 18.7591 7.13679 18.9117 7.02426 19.0243C6.91174 19.1368 6.75913 19.2 6.6 19.2H5.4C5.24087 19.2 5.08826 19.1368 4.97574 19.0243C4.86321 18.9117 4.8 18.7591 4.8 18.6V17.4Z" fill="#2C5558"/>
<path d="M24 4.8C24 4.16348 23.7471 3.55303 23.2971 3.10294C22.847 2.65286 22.2365 2.4 21.6 2.4H19.2V1.2C19.2 0.88174 19.0736 0.576515 18.8485 0.351472C18.6235 0.126428 18.3183 0 18 0C17.6817 0 17.3765 0.126428 17.1515 0.351472C16.9264 0.576515 16.8 0.88174 16.8 1.2V2.4H13.2V1.2C13.2 0.88174 13.0736 0.576515 12.8485 0.351472C12.6235 0.126428 12.3183 0 12 0C11.6817 0 11.3765 0.126428 11.1515 0.351472C10.9264 0.576515 10.8 0.88174 10.8 1.2V2.4H7.2V1.2C7.2 0.88174 7.07357 0.576515 6.84853 0.351472C6.62348 0.126428 6.31826 0 6 0C5.68174 0 5.37652 0.126428 5.15147 0.351472C4.92643 0.576515 4.8 0.88174 4.8 1.2V2.4H2.4C1.76348 2.4 1.15303 2.65286 0.702944 3.10294C0.252856 3.55303 0 4.16348 0 4.8V7.2H24V4.8Z" fill="#2C5558"/>
</g>
<defs>
<clipPath id="clip0_311_1170">
<rect width="24" height="24" fill="white"/>
</clipPath>
</defs>
</svg>
