<svg width="25" height="24" viewBox="0 0 25 24" fill="none" xmlns="http://www.w3.org/2000/svg">
<g id="chart-mixed" clip-path="url(#clip0_3164_114)">
<g id="Vector">
<path d="M2.07778 14.6666C1.29707 14.6666 0.666016 15.264 0.666016 16V22.6667C0.666016 23.4027 1.29707 24 2.07778 24C2.85849 24 3.48955 23.4027 3.48955 22.6667V16C3.48955 15.264 2.85849 14.6666 2.07778 14.6666Z" fill="#2C5558"/>
<path d="M9.1366 9.33326C8.3559 9.33326 7.72484 9.9306 7.72484 10.6666V22.6667C7.72484 23.4027 8.3559 24 9.1366 24C9.91731 24 10.5484 23.4027 10.5484 22.6667V10.6666C10.5484 9.9306 9.91731 9.33326 9.1366 9.33326Z" fill="#2C5558"/>
<path d="M16.1954 14.6666C15.4147 14.6666 14.7837 15.264 14.7837 16V22.6667C14.7837 23.4027 15.4147 24 16.1954 24C16.9761 24 17.6072 23.4027 17.6072 22.6667V16C17.6072 15.264 16.9761 14.6666 16.1954 14.6666Z" fill="#2C5558"/>
<path d="M23.2543 9.33326C22.4735 9.33326 21.8425 9.9306 21.8425 10.6666V22.6667C21.8425 23.4027 22.4735 24 23.2543 24C24.035 24 24.666 23.4027 24.666 22.6667V10.6666C24.666 9.9306 24.035 9.33326 23.2543 9.33326Z" fill="#2C5558"/>
<path d="M2.07637 10.6666C2.48154 10.6666 2.88249 10.5026 3.16343 10.1866L9.1366 3.4159L15.1098 10.1866C15.6477 10.7946 16.7418 10.7946 17.2797 10.1866L24.3385 2.18656C24.8383 1.62122 24.7564 0.779883 24.1578 0.309214C23.5564 -0.162789 22.6684 -0.0854551 22.1686 0.479881L16.1954 7.25058L10.2223 0.479881C9.68437 -0.128122 8.59025 -0.128122 8.05237 0.479881L0.993545 8.47992C0.49378 9.04526 0.575662 9.8866 1.17425 10.3573C1.43825 10.5653 1.75731 10.6666 2.07637 10.6666Z" fill="#2C5558"/>
</g>
</g>
<defs>
<clipPath id="clip0_3164_114">
<rect width="24" height="24" fill="white" transform="translate(0.666016)"/>
</clipPath>
</defs>
</svg>
