<svg width="12" height="13" viewBox="0 0 12 13" fill="none" xmlns="http://www.w3.org/2000/svg">
<g id="chevron-left" clip-path="url(#clip0_3133_147)">
<path id="Vector" d="M8.32137 12.5C8.0126 12.4999 7.71649 12.3736 7.49819 12.1488L2.8409 7.35472C2.62262 7.12997 2.5 6.82517 2.5 6.50736C2.5 6.18956 2.62262 5.88476 2.8409 5.66001L7.49819 0.865896C7.6056 0.751425 7.73407 0.660118 7.87613 0.597305C8.01818 0.534491 8.17096 0.501428 8.32556 0.500045C8.48016 0.498662 8.63347 0.528987 8.77657 0.58925C8.91966 0.649513 9.04965 0.738507 9.15898 0.85104C9.2683 0.963573 9.35475 1.09739 9.4133 1.24469C9.47184 1.39198 9.5013 1.5498 9.49996 1.70894C9.49861 1.86808 9.46649 2.02535 9.40547 2.17158C9.34445 2.3178 9.25575 2.45005 9.14455 2.56061L5.31043 6.50736L9.14455 10.4541C9.30733 10.6217 9.41818 10.8353 9.46308 11.0677C9.50799 11.3002 9.48493 11.5411 9.39683 11.7601C9.30872 11.9791 9.15953 12.1662 8.9681 12.2979C8.77668 12.4296 8.55161 12.4999 8.32137 12.5Z" fill="#374151"/>
</g>
<defs>
<clipPath id="clip0_3133_147">
<rect width="12" height="12" fill="white" transform="translate(0 0.5)"/>
</clipPath>
</defs>
</svg>
