<svg width="16" height="14" viewBox="0 0 16 14" fill="none" xmlns="http://www.w3.org/2000/svg">
<path fill-rule="evenodd" clip-rule="evenodd" d="M11.7984 4.02127C11.1519 3.99403 10.509 4.12466 9.93264 4.40035C9.35631 4.67603 8.86639 5.0873 8.51093 5.59381V4.00928H5.34293V14H8.53333V9.18447C8.53333 7.91365 8.8448 6.68679 10.672 6.68679C12.5557 6.68679 12.8 8.13944 12.8 9.26839V14H16V8.65996C16 6.03739 15.2533 4.02127 11.7984 4.02127Z" fill="#E5E7EB"/>
<path fill-rule="evenodd" clip-rule="evenodd" d="M1.6 0C1.28355 0 0.974207 0.087892 0.711088 0.252561C0.44797 0.41723 0.242894 0.651281 0.121793 0.925116C0.000693258 1.19895 -0.0309921 1.50027 0.0307443 1.79097C0.0924806 2.08167 0.244866 2.3487 0.46863 2.55828C0.692394 2.76787 0.977487 2.9106 1.28786 2.96842C1.59823 3.02625 1.91993 2.99657 2.21229 2.88314C2.50466 2.76972 2.75454 2.57764 2.93035 2.33119C3.10616 2.08475 3.2 1.79501 3.2 1.49861C3.2 1.10115 3.03143 0.719976 2.73137 0.438932C2.43131 0.157888 2.02435 0 1.6 0Z" fill="#E5E7EB"/>
<path d="M3.2 4.02127H1.01706e-06V14H3.2V4.02127Z" fill="#E5E7EB"/>
</svg>
