<svg width="25" height="24" viewBox="0 0 25 24" fill="none" xmlns="http://www.w3.org/2000/svg">
<g id="palette" clip-path="url(#clip0_3164_17)">
<path id="Vector" d="M24.1122 9.72274C23.5294 6.69156 21.7978 4.00192 19.2785 2.2143C16.7591 0.426666 13.6462 -0.321061 10.5884 0.126926C7.53069 0.574913 4.76397 2.18406 2.8648 4.61904C0.965636 7.05403 0.0805245 10.127 0.393907 13.1977C0.622328 15.2492 1.37192 17.2084 2.57154 18.8892C3.77115 20.5701 5.38098 21.9169 7.24821 22.8017C8.81626 23.5746 10.5387 23.9842 12.2873 24H12.3017C12.7792 24.002 13.2525 23.9094 13.694 23.7276C14.1355 23.5458 14.5366 23.2783 14.874 22.9407C15.21 22.6093 15.4767 22.2144 15.6585 21.7792C15.8404 21.3439 15.9338 20.8769 15.9334 20.4052V19.3747C15.9171 19.2053 15.9356 19.0343 15.988 18.8723C16.0403 18.7103 16.1253 18.5607 16.2377 18.4327C16.3501 18.3048 16.4875 18.2011 16.6415 18.1282C16.7955 18.0553 16.9628 18.0146 17.1331 18.0087H20.3725C21.1233 18.0133 21.8565 17.7814 22.4677 17.346C23.079 16.9106 23.5373 16.2939 23.7775 15.5834C24.3778 13.6885 24.4929 11.6735 24.1122 9.72274ZM5.7353 13.2157C5.498 13.2157 5.26604 13.1454 5.06874 13.0137C4.87144 12.882 4.71766 12.6949 4.62685 12.476C4.53604 12.257 4.51228 12.0161 4.55858 11.7836C4.60487 11.5512 4.71914 11.3377 4.88693 11.1701C5.05472 11.0025 5.2685 10.8884 5.50123 10.8422C5.73396 10.7959 5.9752 10.8197 6.19443 10.9104C6.41366 11.001 6.60104 11.1546 6.73287 11.3517C6.8647 11.5487 6.93507 11.7804 6.93507 12.0174C6.93507 12.3352 6.80866 12.64 6.58366 12.8647C6.35866 13.0894 6.0535 13.2157 5.7353 13.2157ZM8.98308 8.67067C8.8153 8.83828 8.60153 8.95244 8.36878 8.9987C8.13604 9.04497 7.89479 9.02126 7.67554 8.93058C7.45629 8.8399 7.26888 8.68631 7.13704 8.48925C7.00519 8.29219 6.93481 8.06051 6.93481 7.8235C6.93481 7.58649 7.00519 7.3548 7.13704 7.15774C7.26888 6.96068 7.45629 6.8071 7.67554 6.71642C7.89479 6.62574 8.13604 6.60203 8.36878 6.64829C8.60153 6.69456 8.8153 6.80872 8.98308 6.97633C9.208 7.20104 9.33436 7.50576 9.33436 7.8235C9.33436 8.14123 9.208 8.44596 8.98308 8.67067ZM12.4288 6.7247C12.1915 6.7247 11.9596 6.65442 11.7623 6.52275C11.565 6.39109 11.4112 6.20395 11.3204 5.98499C11.2296 5.76604 11.2058 5.52511 11.2521 5.29267C11.2984 5.06023 11.4127 4.84672 11.5805 4.67914C11.7483 4.51156 11.962 4.39744 12.1948 4.35121C12.4275 4.30497 12.6687 4.3287 12.888 4.41939C13.1072 4.51009 13.2946 4.66367 13.4264 4.86072C13.5582 5.05778 13.6286 5.28945 13.6286 5.52644C13.6286 5.84424 13.5022 6.14902 13.2772 6.37374C13.0522 6.59845 12.747 6.7247 12.4288 6.7247ZM17.3815 8.67067C17.2137 8.83828 16.9999 8.95244 16.7672 8.9987C16.5345 9.04497 16.2932 9.02126 16.0739 8.93058C15.8547 8.8399 15.6673 8.68631 15.5354 8.48925C15.4036 8.29219 15.3332 8.06051 15.3332 7.8235C15.3332 7.58649 15.4036 7.3548 15.5354 7.15774C15.6673 6.96068 15.8547 6.8071 16.0739 6.71642C16.2932 6.62574 16.5345 6.60203 16.7672 6.64829C16.9999 6.69456 17.2137 6.80872 17.3815 6.97633C17.6064 7.20104 17.7328 7.50576 17.7328 7.8235C17.7328 8.14123 17.6064 8.44596 17.3815 8.67067Z" fill="#2C5558"/>
</g>
<defs>
<clipPath id="clip0_3164_17">
<rect width="24" height="24" fill="white" transform="translate(0.332031)"/>
</clipPath>
</defs>
</svg>
