<svg width="20" height="14" viewBox="0 0 20 14" fill="none" xmlns="http://www.w3.org/2000/svg">
<path fill-rule="evenodd" clip-rule="evenodd" d="M19.796 3.01679C19.7015 2.30291 19.4274 1.62429 18.9991 1.04377C18.4683 0.511987 17.7486 0.209234 16.9953 0.200919C14.2006 2.84422e-07 10 0 10 0C10 0 5.80143 2.84422e-07 3.00273 0.200919C2.24968 0.209065 1.53015 0.511864 0.999899 1.04377C0.56975 1.62373 0.295157 2.30308 0.202 3.0178C0.0771717 4.08704 0.00974274 5.16214 0 6.23852V7.74541C0.00968141 8.82179 0.0771106 9.8969 0.202 10.9661C0.29694 11.6815 0.569032 12.3622 0.993839 12.9472C1.60357 13.4855 2.38752 13.7878 3.20271 13.7991C4.80154 13.9508 10.001 14 10.001 14C10.001 14 14.2036 14 16.9983 13.7991C17.752 13.7903 18.472 13.4873 19.0031 12.9552C19.4304 12.374 19.7038 11.6951 19.798 10.9812C19.9228 9.91196 19.9903 8.83686 20 7.76048V6.23751C19.9886 5.16113 19.9205 4.08608 19.796 3.01679ZM7.98707 9.60089V3.95508L13.4411 6.78703L7.98707 9.60089Z" fill="#E5E7EB"/>
</svg>
